<svg xmlns="http://www.w3.org/2000/svg" xmlns:xlink="http://www.w3.org/1999/xlink" width="19.862" height="19" viewBox="0 0 19.862 19">
  <defs>
    <clipPath id="clip-path">
      <rect id="Rectangle_43" data-name="Rectangle 43" width="19.862" height="19"/>
    </clipPath>
  </defs>
  <g id="Cart_Icon_19.86_x_19" data-name="Cart Icon 19.86 x 19" opacity="0.5" clip-path="url(#clip-path)">
    <path id="Path_138" data-name="Path 138" d="M26.624,6.785H25.66a5.821,5.821,0,0,0-11.642,0h-.964a6.785,6.785,0,0,1,13.57,0" transform="translate(-9.908 0)"/>
    <path id="Path_139" data-name="Path 139" d="M16.7,27.374H3.159A3.159,3.159,0,0,0,0,30.533v6.084a3.159,3.159,0,0,0,3.159,3.159H16.7a3.159,3.159,0,0,0,3.159-3.159V30.533A3.159,3.159,0,0,0,16.7,27.374M12.978,33.69H10.5v2.473a.573.573,0,1,1-1.147,0V33.69H6.884a.573.573,0,1,1,0-1.147H9.358V30.07a.573.573,0,1,1,1.147,0v2.473h2.473a.573.573,0,0,1,0,1.147" transform="translate(0 -20.777)"/>
  </g>
</svg>
