<svg xmlns="http://www.w3.org/2000/svg" xmlns:xlink="http://www.w3.org/1999/xlink" width="307.179" height="70.181" viewBox="0 0 307.179 70.181">
  <defs>
    <linearGradient id="linear-gradient" x1="0.5" y1="-0.069" x2="0.5" y2="1.314" gradientUnits="objectBoundingBox">
      <stop offset="0" stop-color="#00a69c"/>
      <stop offset="1" stop-color="#293b8f"/>
    </linearGradient>
    <linearGradient id="linear-gradient-2" x1="0.5" y1="-0.052" x2="0.5" y2="1.289" xlink:href="#linear-gradient"/>
    <linearGradient id="linear-gradient-5" x1="0.5" y1="0.038" x2="0.5" y2="1.219" gradientUnits="objectBoundingBox">
      <stop offset="0" stop-color="#929497"/>
      <stop offset="1" stop-color="#221f1f"/>
    </linearGradient>
    <linearGradient id="linear-gradient-7" x1="0.5" y1="0.045" x2="0.5" y2="1.218" xlink:href="#linear-gradient-5"/>
    <linearGradient id="linear-gradient-8" x1="0.5" y1="-0.328" x2="0.5" y2="1.29" xlink:href="#linear-gradient-5"/>
    <linearGradient id="linear-gradient-11" x1="0.5" y1="-0.331" x2="0.5" y2="1.304" xlink:href="#linear-gradient-5"/>
    <linearGradient id="linear-gradient-13" x1="0.5" y1="4.054" x2="0.5" y2="-0.052" xlink:href="#linear-gradient-5"/>
    <linearGradient id="linear-gradient-16" x1="0.5" y1="3.998" x2="0.5" y2="-0.043" xlink:href="#linear-gradient-5"/>
    <linearGradient id="linear-gradient-24" x1="0.552" y1="0.181" x2="0.278" y2="1.864" xlink:href="#linear-gradient"/>
    <linearGradient id="linear-gradient-25" x1="0.657" y1="-7.417" x2="0.448" y2="3.136" xlink:href="#linear-gradient"/>
    <linearGradient id="linear-gradient-26" x1="0.643" y1="0.403" x2="-0.023" y2="0.95" xlink:href="#linear-gradient-5"/>
    <linearGradient id="linear-gradient-27" x1="0.688" y1="-0.149" x2="0.475" y2="0.893" xlink:href="#linear-gradient"/>
  </defs>
  <g id="Yoda_Logo_307.18_x_70.18" data-name="Yoda Logo 307.18 x 70.18" transform="translate(-279.364 -371.819)">
    <g id="Group_1" data-name="Group 1" transform="translate(346.956 393.245)">
      <path id="Path_1" data-name="Path 1" d="M599.414,488.723l-8.79-16.354h7.769l4.619,9.4,4.58-9.4h7.768l-8.79,16.354v9.4h-7.156Z" transform="translate(-590.624 -471.959)" fill="url(#linear-gradient)"/>
      <path id="Path_2" data-name="Path 2" d="M731.644,483.771a13.657,13.657,0,0,1-1,5.254,12.746,12.746,0,0,1-2.78,4.212,13.1,13.1,0,0,1-4.171,2.8,13.444,13.444,0,0,1-10.283,0,13.161,13.161,0,0,1-4.151-2.8,12.742,12.742,0,0,1-2.78-4.212,14.272,14.272,0,0,1,0-10.508,12.747,12.747,0,0,1,2.78-4.212,13.225,13.225,0,0,1,4.151-2.8,13.447,13.447,0,0,1,10.283,0,13.163,13.163,0,0,1,4.171,2.8,12.75,12.75,0,0,1,2.78,4.212A13.661,13.661,0,0,1,731.644,483.771Zm-19.012,0a6.754,6.754,0,0,0,.471,2.556,6.242,6.242,0,0,0,1.268,2,5.644,5.644,0,0,0,1.881,1.309,5.8,5.8,0,0,0,6.5-1.309,6.272,6.272,0,0,0,1.268-2,7.2,7.2,0,0,0,0-5.112,6.318,6.318,0,0,0-1.268-2,5.807,5.807,0,0,0-8.382,0,6.288,6.288,0,0,0-1.268,2A6.756,6.756,0,0,0,712.631,483.771Z" transform="translate(-680.535 -470.483)" fill="url(#linear-gradient-2)"/>
      <path id="Path_3" data-name="Path 3" d="M841.987,472.369h9.4a13.752,13.752,0,0,1,5.233.981,12.536,12.536,0,0,1,4.15,2.7,12.253,12.253,0,0,1,2.719,4.09,13.842,13.842,0,0,1,0,10.241,12.292,12.292,0,0,1-2.719,4.068,12.582,12.582,0,0,1-4.15,2.7,13.782,13.782,0,0,1-5.233.981h-9.4Zm9.4,19.216a5.741,5.741,0,0,0,2.311-.47,5.68,5.68,0,0,0,1.88-1.309,6.271,6.271,0,0,0,1.268-2,7.2,7.2,0,0,0,0-5.112,6.315,6.315,0,0,0-1.268-2,5.745,5.745,0,0,0-4.191-1.778h-2.249v12.675Z" transform="translate(-787.402 -471.959)" fill="url(#linear-gradient)"/>
      <path id="Path_4" data-name="Path 4" d="M955.48,493.424l-1.431,4.7h-7.565l8.79-25.759h8.178l8.791,25.759h-7.565l-1.431-4.7Zm3.885-13.083-2.25,7.36h4.5Z" transform="translate(-869.207 -471.959)" fill="url(#linear-gradient)"/>
      <path id="Path_5" data-name="Path 5" d="M1134.922,494.468v3.674H1118.77V472.387h3.874v22.081Z" transform="translate(-1004.08 -471.974)" fill="url(#linear-gradient-5)"/>
      <path id="Path_6" data-name="Path 6" d="M1206.622,476.88a2.191,2.191,0,0,1-1.6-.65,2.168,2.168,0,0,1-.658-1.605,2.144,2.144,0,0,1,.658-1.588,2.289,2.289,0,0,1,3.195,0,2.139,2.139,0,0,1,.66,1.588,2.251,2.251,0,0,1-2.257,2.255Zm1.837,21.262h-3.674V479.734h3.674Z" transform="translate(-1071.088 -471.974)" fill="url(#linear-gradient-5)"/>
      <path id="Path_7" data-name="Path 7" d="M1248.312,482.487h-4.092V497.42h-3.672V482.487h-2.257v-3.474h2.257v-1.219a7.617,7.617,0,0,1,.428-2.643,5.653,5.653,0,0,1,1.2-1.977,5.406,5.406,0,0,1,1.817-1.258,5.67,5.67,0,0,1,2.265-.45,5.065,5.065,0,0,1,.829.061,6.149,6.149,0,0,1,.65.139c.212.08.405.147.577.2v3.274c-.105-.027-.232-.052-.377-.079s-.275-.054-.42-.081a2.632,2.632,0,0,0-.439-.04,2.8,2.8,0,0,0-2.856,2.855v1.219h4.092Z" transform="translate(-1097.646 -471.252)" fill="url(#linear-gradient-7)"/>
      <path id="Path_8" data-name="Path 8" d="M1312.432,518.595a10.749,10.749,0,0,1-1.157,2.137,8.084,8.084,0,0,1-1.678,1.756,7.588,7.588,0,0,1-2.266,1.188,9.069,9.069,0,0,1-2.886.431,8.526,8.526,0,0,1-6.229-2.626,9,9,0,0,1-1.875-2.965,10.983,10.983,0,0,1,0-7.606,9.338,9.338,0,0,1,1.835-2.965,8.275,8.275,0,0,1,2.736-1.947,8.3,8.3,0,0,1,6.669,0,8.262,8.262,0,0,1,2.734,1.947,9.377,9.377,0,0,1,1.837,2.965,10.236,10.236,0,0,1,.678,3.792,5.23,5.23,0,0,1-.04.63c-.027.207-.054.383-.08.529-.027.185-.052.345-.079.479h-13.1a4.262,4.262,0,0,0,.5,1.637,5.282,5.282,0,0,0,1.048,1.367,4.725,4.725,0,0,0,1.508.939,4.988,4.988,0,0,0,1.855.349,4.434,4.434,0,0,0,2.666-.72,6.6,6.6,0,0,0,1.427-1.318Zm-8.187-9.822a4.262,4.262,0,0,0-3.1,1.247,5.8,5.8,0,0,0-1.606,3.265h9.822a5.6,5.6,0,0,0-1.627-3.255A4.817,4.817,0,0,0,1304.245,508.773Z" transform="translate(-1142.557 -497.738)" fill="url(#linear-gradient-8)"/>
      <path id="Path_9" data-name="Path 9" d="M1411.56,494.468v3.674h-16.153V472.387h3.874v22.081Z" transform="translate(-1220.643 -471.974)" fill="url(#linear-gradient-5)"/>
      <path id="Path_10" data-name="Path 10" d="M1483.258,476.88a2.187,2.187,0,0,1-1.6-.65,2.164,2.164,0,0,1-.66-1.605,2.14,2.14,0,0,1,.66-1.588,2.289,2.289,0,0,1,3.195,0,2.143,2.143,0,0,1,.659,1.588,2.249,2.249,0,0,1-2.257,2.255Zm1.838,21.262h-3.674V479.734h3.674Z" transform="translate(-1287.651 -471.974)" fill="url(#linear-gradient-5)"/>
      <path id="Path_11" data-name="Path 11" d="M1531.248,505.3a6.978,6.978,0,0,1,2.866.6,7.385,7.385,0,0,1,2.345,1.636,7.581,7.581,0,0,1,1.577,2.505,8.754,8.754,0,0,1,.58,3.245v10.621h-3.674V513.285a4.331,4.331,0,0,0-.349-1.717,4.7,4.7,0,0,0-2.326-2.427,3.8,3.8,0,0,0-1.638-.369,4.244,4.244,0,0,0-1.756.369,4.657,4.657,0,0,0-2.387,2.415,4.335,4.335,0,0,0-.349,1.728v10.621h-3.674V505.5h2.656l.818,1.858a6.449,6.449,0,0,1,1.258-1.038,10.177,10.177,0,0,1,1.658-.689A7.7,7.7,0,0,1,1531.248,505.3Z" transform="translate(-1320.108 -497.738)" fill="url(#linear-gradient-11)"/>
      <path id="Path_12" data-name="Path 12" d="M1631.454,518.595a10.653,10.653,0,0,1-1.158,2.137,8.1,8.1,0,0,1-1.677,1.756,7.577,7.577,0,0,1-2.267,1.188,9.064,9.064,0,0,1-2.885.431,8.589,8.589,0,0,1-3.435-.689,8.484,8.484,0,0,1-2.793-1.937,8.994,8.994,0,0,1-1.878-2.965,11.017,11.017,0,0,1,0-7.606,9.366,9.366,0,0,1,1.836-2.965,8.26,8.26,0,0,1,2.736-1.947,8.3,8.3,0,0,1,6.669,0,8.251,8.251,0,0,1,2.733,1.947,9.382,9.382,0,0,1,1.839,2.965,10.255,10.255,0,0,1,.678,3.792,5.038,5.038,0,0,1-.039.63c-.026.207-.054.383-.081.529-.027.185-.052.345-.079.479h-13.1a4.241,4.241,0,0,0,.5,1.637,5.285,5.285,0,0,0,1.047,1.367,4.753,4.753,0,0,0,1.509.939,4.991,4.991,0,0,0,1.856.349,4.432,4.432,0,0,0,2.666-.72,6.533,6.533,0,0,0,1.426-1.318Zm-8.186-9.822a4.26,4.26,0,0,0-3.1,1.247,5.78,5.78,0,0,0-1.606,3.265h9.822a5.605,5.605,0,0,0-1.627-3.255A4.821,4.821,0,0,0,1623.269,508.773Z" transform="translate(-1392.303 -497.738)" fill="url(#linear-gradient-8)"/>
    </g>
    <g id="Group_2" data-name="Group 2" transform="translate(346.92 429.673)">
      <path id="Path_13" data-name="Path 13" d="M590.457,650.8V638.669h3.853a5.42,5.42,0,0,1,2.272.492,6.437,6.437,0,0,1,1.907,1.319,6.278,6.278,0,0,1,1.31,1.925,5.882,5.882,0,0,1,0,4.662,6.248,6.248,0,0,1-1.31,1.926,6.445,6.445,0,0,1-1.907,1.319,5.42,5.42,0,0,1-2.272.492Zm3.853-2.214a3.262,3.262,0,0,0,1.378-.309,4.009,4.009,0,0,0,1.174-.829,3.921,3.921,0,0,0,.809-1.222,3.886,3.886,0,0,0,0-2.986,3.93,3.93,0,0,0-.809-1.224,4.01,4.01,0,0,0-1.174-.828,3.258,3.258,0,0,0-1.378-.307h-1.542v7.706Z" transform="translate(-590.457 -638.574)" fill="url(#linear-gradient-13)"/>
      <path id="Path_14" data-name="Path 14" d="M705.861,650.8h-2.312V638.669h2.312Z" transform="translate(-678.99 -638.574)" fill="url(#linear-gradient-13)"/>
      <path id="Path_15" data-name="Path 15" d="M781.358,650.8h-2.407l4.526-12.136H785.6l4.527,12.136h-2.406l-.868-2.5h-4.622Zm4.719-4.623-1.541-4.432L783,646.182Z" transform="translate(-738.018 -638.574)" fill="url(#linear-gradient-13)"/>
      <path id="Path_16" data-name="Path 16" d="M892.583,644.4a4.233,4.233,0,0,0,.289,1.589,4.051,4.051,0,0,0,.771,1.253,3.334,3.334,0,0,0,2.5,1.107,3.027,3.027,0,0,0,1.5-.336,3.31,3.31,0,0,0,.945-.761,4.032,4.032,0,0,0,.635-1.117h-3.178v-2.025h5.683v6.358H900.1l-.481-1.156a4.807,4.807,0,0,1-.945.635,6.188,6.188,0,0,1-1.078.425,5,5,0,0,1-1.445.193,5.554,5.554,0,0,1-2.263-.472,5.781,5.781,0,0,1-1.868-1.31,6.417,6.417,0,0,1-1.272-1.954,6.452,6.452,0,0,1,0-4.846,6.383,6.383,0,0,1,1.272-1.966,5.791,5.791,0,0,1,1.868-1.308,5.53,5.53,0,0,1,2.263-.471,5.2,5.2,0,0,1,1.937.356,5.6,5.6,0,0,1,2.764,2.32,5.9,5.9,0,0,1,.694,1.656h-2.409a2.852,2.852,0,0,0-.365-.78,3,3,0,0,0-.627-.674,3.106,3.106,0,0,0-.877-.48,3.229,3.229,0,0,0-1.117-.183,3.343,3.343,0,0,0-2.5,1.109,4.048,4.048,0,0,0-.771,1.253A4.225,4.225,0,0,0,892.583,644.4Z" transform="translate(-825.165 -638.233)" fill="url(#linear-gradient-16)"/>
      <path id="Path_17" data-name="Path 17" d="M1022.852,638.669V650.8h-2.022l-5.394-7.9v7.9h-2.311V638.669h2.023l5.393,7.9v-7.9Z" transform="translate(-921.34 -638.574)" fill="url(#linear-gradient-13)"/>
      <path id="Path_18" data-name="Path 18" d="M1137.524,644.4a6.2,6.2,0,0,1-.472,2.428,6.467,6.467,0,0,1-1.273,1.954,5.778,5.778,0,0,1-1.867,1.31,5.664,5.664,0,0,1-4.527,0,5.781,5.781,0,0,1-1.869-1.31,6.441,6.441,0,0,1-1.271-1.954,6.444,6.444,0,0,1,0-4.846,6.405,6.405,0,0,1,1.271-1.966,5.792,5.792,0,0,1,1.869-1.308,5.671,5.671,0,0,1,4.527,0,5.788,5.788,0,0,1,1.867,1.308,6.431,6.431,0,0,1,1.273,1.966A6.2,6.2,0,0,1,1137.524,644.4Zm-9.438,0a4.23,4.23,0,0,0,.288,1.589,4.113,4.113,0,0,0,.77,1.253,3.367,3.367,0,0,0,1.127.819,3.389,3.389,0,0,0,3.88-.819,4.1,4.1,0,0,0,.771-1.253,4.485,4.485,0,0,0,0-3.177,4.092,4.092,0,0,0-.771-1.253,3.372,3.372,0,0,0-5.007,0,4.11,4.11,0,0,0-.77,1.253A4.222,4.222,0,0,0,1128.086,644.4Z" transform="translate(-1009.525 -638.233)" fill="url(#linear-gradient-16)"/>
      <path id="Path_19" data-name="Path 19" d="M1245.175,641.718a3.106,3.106,0,0,1,.3-1.33,3.348,3.348,0,0,1,.847-1.107,4.335,4.335,0,0,1,1.329-.761,5.062,5.062,0,0,1,1.765-.288,4.5,4.5,0,0,1,1.646.288,3.826,3.826,0,0,1,1.28.81,3.547,3.547,0,0,1,.829,1.222,3.991,3.991,0,0,1,.289,1.531h-2.215a1.677,1.677,0,0,0-.481-1.271,1.868,1.868,0,0,0-1.348-.462,1.971,1.971,0,0,0-1.348.423,1.225,1.225,0,0,0-.483.925.922.922,0,0,0,.464.828,5.363,5.363,0,0,0,1.156.52q.694.231,1.51.481a6.618,6.618,0,0,1,1.513.674,3.718,3.718,0,0,1,1.154,1.109,3.108,3.108,0,0,1,.463,1.782,2.745,2.745,0,0,1-.317,1.27,3.626,3.626,0,0,1-.9,1.108,4.507,4.507,0,0,1-1.4.788,5.224,5.224,0,0,1-1.82.3,5.33,5.33,0,0,1-1.821-.29,3.843,3.843,0,0,1-1.359-.819,3.589,3.589,0,0,1-.856-1.251,4.116,4.116,0,0,1-.3-1.589h2.312a1.731,1.731,0,0,0,.541,1.319,2.068,2.068,0,0,0,1.483.512,2.284,2.284,0,0,0,1.52-.434,1.3,1.3,0,0,0,.5-1.012.979.979,0,0,0-.463-.866,5.2,5.2,0,0,0-1.156-.55c-.461-.161-.967-.319-1.512-.472a6.518,6.518,0,0,1-1.513-.635,3.706,3.706,0,0,1-1.155-1.05A2.863,2.863,0,0,1,1245.175,641.718Z" transform="translate(-1102.922 -638.233)" fill="url(#linear-gradient-16)"/>
      <path id="Path_20" data-name="Path 20" d="M1347.974,638.669h9.439v2.216h-3.564v9.92h-2.312v-9.92h-3.562Z" transform="translate(-1183.474 -638.574)" fill="url(#linear-gradient-13)"/>
      <path id="Path_21" data-name="Path 21" d="M1460.277,650.8h-2.312V638.669h2.312Z" transform="translate(-1269.579 -638.574)" fill="url(#linear-gradient-13)"/>
      <path id="Path_22" data-name="Path 22" d="M1538.774,644.4a4.252,4.252,0,0,0,.287,1.589,4.1,4.1,0,0,0,.772,1.253,3.356,3.356,0,0,0,1.127.819,3.32,3.32,0,0,0,1.376.288,3.219,3.219,0,0,0,1.118-.184,3.368,3.368,0,0,0,.9-.479,3,3,0,0,0,.655-.675,3.636,3.636,0,0,0,.413-.779h2.408a5.849,5.849,0,0,1-.693,1.655,5.535,5.535,0,0,1-1.185,1.377,5.781,5.781,0,0,1-1.618.945,5.464,5.464,0,0,1-1.995.356,5.553,5.553,0,0,1-2.263-.472,5.766,5.766,0,0,1-1.868-1.31,6.464,6.464,0,0,1-1.271-1.954,6.444,6.444,0,0,1,0-4.846,6.429,6.429,0,0,1,1.271-1.966,5.777,5.777,0,0,1,1.868-1.308,5.529,5.529,0,0,1,2.263-.471,5.2,5.2,0,0,1,1.937.356,5.592,5.592,0,0,1,2.764,2.32,5.837,5.837,0,0,1,.693,1.656h-2.407a2.85,2.85,0,0,0-.366-.78,2.963,2.963,0,0,0-.626-.674,3.135,3.135,0,0,0-.877-.48,3.226,3.226,0,0,0-1.118-.183,3.348,3.348,0,0,0-2.5,1.109,4.092,4.092,0,0,0-.772,1.253A4.244,4.244,0,0,0,1538.774,644.4Z" transform="translate(-1331.03 -638.233)" fill="url(#linear-gradient-16)"/>
      <path id="Path_23" data-name="Path 23" d="M1653.651,641.718a3.084,3.084,0,0,1,.3-1.33,3.285,3.285,0,0,1,.846-1.107,4.33,4.33,0,0,1,1.33-.761,5.045,5.045,0,0,1,1.763-.288,4.481,4.481,0,0,1,1.644.288,3.8,3.8,0,0,1,1.283.81,3.552,3.552,0,0,1,.829,1.222,4.02,4.02,0,0,1,.288,1.531h-2.215a1.676,1.676,0,0,0-.482-1.271,1.866,1.866,0,0,0-1.347-.462,1.976,1.976,0,0,0-1.351.423,1.226,1.226,0,0,0-.48.925.923.923,0,0,0,.461.828,5.492,5.492,0,0,0,1.157.52q.694.231,1.512.481a6.627,6.627,0,0,1,1.511.674,3.727,3.727,0,0,1,1.156,1.109,3.12,3.12,0,0,1,.462,1.782,2.758,2.758,0,0,1-.317,1.27,3.655,3.655,0,0,1-.9,1.108,4.515,4.515,0,0,1-1.4.788,5.214,5.214,0,0,1-1.819.3,5.333,5.333,0,0,1-1.821-.29,3.848,3.848,0,0,1-1.359-.819,3.593,3.593,0,0,1-.856-1.251,4.1,4.1,0,0,1-.3-1.589h2.312a1.735,1.735,0,0,0,.538,1.319,2.075,2.075,0,0,0,1.485.512,2.279,2.279,0,0,0,1.519-.434,1.307,1.307,0,0,0,.5-1.012.982.982,0,0,0-.463-.866,5.123,5.123,0,0,0-1.155-.55c-.463-.161-.967-.319-1.513-.472a6.585,6.585,0,0,1-1.513-.635,3.691,3.691,0,0,1-1.155-1.05A2.872,2.872,0,0,1,1653.651,641.718Z" transform="translate(-1422.696 -638.233)" fill="url(#linear-gradient-16)"/>
    </g>
    <g id="Group_3" data-name="Group 3" transform="translate(279.364 371.819)">
      <path id="Path_24" data-name="Path 24" d="M430.869,375.405l.572-.754-3.74-2.832-.567.76-.691-.523-14.681,19.413.691.523-.573.75,3.74,2.832.572-.755.686.518,14.681-19.413Zm-7.652,7.386a1.211,1.211,0,1,1,1.214-1.213A1.213,1.213,0,0,1,423.217,382.791Z" transform="translate(-383.011 -371.819)" fill="url(#linear-gradient-24)"/>
      <rect id="Rectangle_1" data-name="Rectangle 1" width="25.877" height="3.787" transform="translate(15.931 31.481)" fill="url(#linear-gradient-25)"/>
      <path id="Path_25" data-name="Path 25" d="M304.908,546.9V535.114a25.929,25.929,0,0,1-22.693-25.693h6.413a19.509,19.509,0,0,0,19.487,19.487c.168,0,.335,0,.5-.005,12.511-.177,22.856-7.089,24.993-14.928a25.957,25.957,0,0,1-22.289,21.14V546.9l25.545,2.773h-57.5Z" transform="translate(-279.364 -479.54)" fill="url(#linear-gradient-26)"/>
      <path id="Path_26" data-name="Path 26" d="M439.473,441.253a26.028,26.028,0,0,1-.4,4.538c0,.005-.005.01-.005.015-2.136,7.839-12.481,14.751-24.993,14.928a19.479,19.479,0,0,0,14.554-31.84l-4.366,2.713,3.108-4.109,1.979-2.62,1.919-2.536A25.972,25.972,0,0,1,439.473,441.253Z" transform="translate(-384.822 -411.372)" fill="url(#linear-gradient-27)"/>
    </g>
  </g>
</svg>
