<svg xmlns="http://www.w3.org/2000/svg" xmlns:xlink="http://www.w3.org/1999/xlink" width="35.995" height="34.781" viewBox="0 0 35.995 34.781">
  <defs>
    <clipPath id="clip-path">
      <rect id="Rectangle_45" data-name="Rectangle 45" width="35.995" height="34.781" fill="#141414"/>
    </clipPath>
  </defs>
  <g id="Call_Icon_35.99_x_34.78" data-name="Call Icon 35.99 x 34.78" clip-path="url(#clip-path)">
    <path id="Path_140" data-name="Path 140" d="M24.921,79.162a17.5,17.5,0,0,1-6.89-1.585,32.359,32.359,0,0,1-9-6.122,32.182,32.182,0,0,1-6.8-8.878A20.676,20.676,0,0,1,.176,56.6a9.817,9.817,0,0,1,1-6.628,6.333,6.333,0,0,1,5.258-3.349c.357-.031.717-.036,1.075-.058a2.1,2.1,0,0,1,1.614.616A6.028,6.028,0,0,1,10.5,49.308c.266.623.489,1.265.726,1.9.376,1.008.756,2.014,1.119,3.027a9.38,9.38,0,0,1,.319,1.123,2.485,2.485,0,0,1-.318,1.87,6.974,6.974,0,0,1-2.112,2.283,5.792,5.792,0,0,0-.623.455.691.691,0,0,0-.154,1.085A24.9,24.9,0,0,0,11.3,63.469a52.62,52.62,0,0,0,6.591,6.068c.136.1.286.19.425.29a.368.368,0,0,0,.538-.056q1.234-1.234,2.48-2.456a2.686,2.686,0,0,1,2.191-.863,3.739,3.739,0,0,1,.993.252c2.3.9,4.6,1.811,6.9,2.72a1.873,1.873,0,0,1,1.113,1.463,5.533,5.533,0,0,1-.062,2.553,8.238,8.238,0,0,1-1.561,3.244,6.4,6.4,0,0,1-4.446,2.366c-.51.064-1.027.076-1.541.111" transform="translate(0 -44.381)" fill="#141414"/>
    <path id="Path_141" data-name="Path 141" d="M356.448,0a18.5,18.5,0,0,1,17.429,14.819,25.2,25.2,0,0,1,.345,2.808.9.9,0,0,1-.9,1,.924.924,0,0,1-.918-.93A16.626,16.626,0,0,0,358.965,2.139a17.782,17.782,0,0,0-3.165-.3.88.88,0,0,1-.824-.484A.878.878,0,0,1,355.033.4.9.9,0,0,1,355.792,0c.218-.006.437,0,.656,0" transform="translate(-338.232 0)" fill="#141414"/>
    <path id="Path_142" data-name="Path 142" d="M356.03,102.456a13.7,13.7,0,0,1,12.16,8.953,13.328,13.328,0,0,1,.8,3.836.913.913,0,0,1-.891,1.04.93.93,0,0,1-.935-.94,11.506,11.506,0,0,0-2.281-6.245,11.644,11.644,0,0,0-7.542-4.65,15.656,15.656,0,0,0-1.583-.156.919.919,0,0,1-.831-1.345.878.878,0,0,1,.772-.49c.109-.006.218,0,.328,0" transform="translate(-338.191 -97.652)" fill="#141414"/>
  </g>
</svg>
