<?xml version="1.0"?>
<svg xmlns="http://www.w3.org/2000/svg" xmlns:xlink="http://www.w3.org/1999/xlink" xmlns:svgjs="http://svgjs.com/svgjs" version="1.1" width="512" height="512" x="0" y="0" viewBox="0 0 480 480" style="enable-background:new 0 0 512 512" xml:space="preserve" class=""><g><path xmlns="http://www.w3.org/2000/svg" d="m193.781 345.782-1.235-9.759c-.733-5.792 4.783-10.386 10.349-8.623 24.306 7.698 50.27 7.566 74.184.002 5.573-1.763 11.096 2.821 10.362 8.62-1.188 9.385-.841 12.911-4.787 15.453-25.952 16.718-59.37 16.717-85.323 0-1.969-1.27-3.256-3.368-3.55-5.693zm5.78 38.158 13.755 89.278c.601 3.902 3.959 6.782 7.907 6.782h37.54c3.948 0 7.306-2.88 7.907-6.782l13.755-89.278c.912-5.918-4.76-10.694-10.44-8.798-19.46 6.496-40.518 6.499-59.986 0-5.678-1.897-11.35 2.88-10.438 8.798zm119.862-41.77c-2.581 0-5.119-.289-7.574-.853-4.524-1.038-8.975 1.987-9.681 6.575l-18.934 122.889c-.747 4.847 3.003 9.218 7.907 9.218h102.852c4.418 0 8-3.582 8-8v-47.26c0-45.627-36.94-82.569-82.57-82.569zm-141.605 5.721c-.708-4.598-5.171-7.609-9.705-6.57-2.423.555-4.95.849-7.549.849-45.628 0-82.57 36.94-82.57 82.57v47.26c0 4.418 3.582 8 8 8h102.852c4.904 0 8.653-4.372 7.907-9.218zm209.985-144.111c-10.34-15.48-15.81-33.61-15.81-52.45v-43.33c0-59.647-48.353-108-108-108h-48c-59.647 0-108 48.353-108 108v43.33c0 18.78-5.5 36.97-15.92 52.6-27.502 41.297-25.225 96.337 6.536 135.046 2.548 3.105 7 3.799 10.419 1.691 15.061-9.288 32.802-14.497 51.535-14.497 13.23 0 14.787-11.176 8.73-15.446-31.61-22.284-52.3-59.067-52.3-100.603v-56.121c0-14.474 12.755-25.701 27.16-23.79 48.202 6.402 96.938-6.131 136.24-36.26 12.665-9.7 31.099-4.559 36.93 10.25 1.87 4.76 5.56 11.7 12.46 17.73 11.941 10.419 18.307 7.198 26.21 15.13 4.38 4.39 7 10.43 7 16.94v56.12c0 41.535-20.689 78.318-52.297 100.602-6.068 4.278-4.486 15.448 8.727 15.448 18.745 0 36.483 5.215 51.534 14.497 3.418 2.108 7.871 1.415 10.418-1.69 31.561-38.48 34.291-93.558 6.428-135.197zm-46.41-57.41c-17.814-5.595-32.065-18.831-38.96-36.3-1.949-4.958-8.092-6.646-12.31-3.42-43.148 33.079-96.213 46.29-148.08 39.42-4.772-.649-9.05 3.088-9.05 7.93v56.12c0 59 48 107 107 107s107-48 107-107v-56.12c0-3.5-2.27-6.59-5.6-7.63z" fill="#d9dbf6" data-original="#000000" class=""/></g></svg>
